<svg viewBox="0 0 32 32" xmlns="http://www.w3.org/2000/svg" aria-hidden="true" role="presentation" focusable="false" style="display: block; height: 24px; width: 24px; fill: currentcolor;"><path d="M12 1c6.075 0 11 4.925 11 11 0 1.464-.287 2.888-.834 4.208l-.166.378 9 9V31h-5.414l-4.001-4H16v-4.753l-.155.062a10.95 10.95 0 0 1-3.001.66l-.446.024L12 23C5.925 23 1 18.075 1 12S5.925 1 12 1zm0 2a9 9 0 1 0 0 18c1.409 0 2.77-.323 4-.935l.305-.16.658-.358L18 20.587V25h4.414l4.001 4H29v-2.585l-9.453-9.453.359-.657A8.954 8.954 0 0 0 21 12a9 9 0 0 0-9-9zM9 6a3 3 0 1 1 0 6 3 3 0 0 1 0-6zm0 2a1 1 0 1 0 0 2 1 1 0 0 0 0-2z"></path></svg>